<?xml version="1.0" encoding="iso-8859-1"?>
<!-- Generator: Adobe Illustrator 19.0.0, SVG Export Plug-In . SVG Version: 6.00 Build 0)  -->
<svg version="1.1" id="Layer_1" xmlns="http://www.w3.org/2000/svg" xmlns:xlink="http://www.w3.org/1999/xlink" x="0px" y="0px"
	 viewBox="0 0 512 512" style="enable-background:new 0 0 512 512;" xml:space="preserve">
<circle style="fill:#0F7986;" cx="256" cy="256" r="256"/>
<path style="fill:#15BDB2;" d="M85.688,225.248c9.602-26.849,35.25-46.058,65.392-46.058c8.032,0,15.75,1.371,22.923,3.879
	c8.083-57.504,57.476-101.756,117.21-101.756c63,0,114.504,49.218,118.157,111.304c33.597,1.206,60.455,28.812,60.455,62.7
	c0,34.654-28.091,62.746-62.741,62.746c-111.146,0-212.828,0-323.341,0c-25.644,0-46.432-20.784-46.432-46.428
	c0-26.29,22.055-47.62,48.382-46.381L85.688,225.248z"/>
<path style="fill:#21D0C3;" d="M83.101,219.04c9.598-26.845,35.25-46.054,65.397-46.054c8.032,0,15.745,1.371,22.918,3.879
	c8.078-57.504,57.476-101.761,117.206-101.761c63,0,114.504,49.222,118.162,111.304c33.597,1.206,60.455,28.812,60.455,62.7
	c0,34.654-28.087,62.746-62.741,62.746c-111.146,0-212.828,0-323.346,0c-25.644,0-46.428-20.784-46.428-46.428
	C34.724,238.989,56.714,217.96,83.101,219.04z"/>
<path style="fill:#FAD24D;" d="M237.063,259.408h160.271c7.584,0,13.731,6.148,13.731,13.731v143.108
	c0,7.584-6.148,13.731-13.731,13.731H237.063c-7.584,0-13.731-6.148-13.731-13.731V273.141
	C223.332,265.556,229.479,259.408,237.063,259.408z"/>
<path style="fill:#EDB937;" d="M410.918,418.239c-0.97,6.619-6.707,11.741-13.583,11.741H237.058
	c-6.878,0-12.614-5.122-13.583-11.741H410.918z"/>
<rect x="223.334" y="277.967" style="fill:#FEFEFE;" width="187.733" height="32.217"/>
<path style="fill:#ECF0F1;" d="M238.809,277.967h33.371l-20.983,32.22h-27.865v-8.452L238.809,277.967z M286.937,277.967h33.366
	l-20.983,32.22h-33.366L286.937,277.967z M335.065,277.967h33.366l-20.983,32.22h-33.366L335.065,277.967z M383.192,277.967h27.87
	v8.448l-15.482,23.773h-33.371L383.192,277.967z"/>
<path style="fill:#FEFEFE;" d="M248.933,259.408v-41.532c0-26.558,18.276-43.347,41.662-50.515
	c8.498-2.605,17.607-3.907,26.604-3.907c9.002,0,18.106,1.302,26.604,3.907c23.385,7.168,41.662,23.957,41.662,50.515v41.532
	h-22.706v-41.532c0-14.789-11.233-24.465-25.606-28.872c-6.185-1.893-13.021-2.845-19.953-2.845c-6.932,0-13.768,0.947-19.953,2.845
	c-14.374,4.406-25.606,14.083-25.606,28.872v41.532H248.933z"/>
<path style="fill:#ECF0F1;" d="M367.936,219.36v40.05h-5.178v-41.532c0-14.789-11.233-24.465-25.606-28.872
	c-6.185-1.893-13.021-2.845-19.953-2.845c-6.932,0-13.768,0.947-19.953,2.845c-14.374,4.406-25.606,14.083-25.606,28.872v41.532
	h-5.178v-40.05C266.462,168.622,367.94,168.576,367.936,219.36z"/>
<g>
	<rect x="223.334" y="275.392" style="fill:#EDB937;" width="187.733" height="2.573"/>
	<rect x="223.334" y="310.184" style="fill:#EDB937;" width="187.733" height="2.573"/>
	<path style="fill:#EDB937;" d="M294.164,389.935c4.023,0,7.279,3.257,7.279,7.279c0,4.023-3.257,7.279-7.279,7.279
		c-4.023,0-7.279-3.257-7.279-7.279C286.886,393.191,290.142,389.935,294.164,389.935z M340.232,389.935
		c4.023,0,7.279,3.257,7.279,7.279c0,4.023-3.257,7.279-7.279,7.279c-4.023,0-7.279-3.257-7.279-7.279
		C332.954,393.191,336.209,389.935,340.232,389.935z M317.198,389.935c4.023,0,7.279,3.257,7.279,7.279
		c0,4.023-3.257,7.279-7.279,7.279c-4.023,0-7.279-3.257-7.279-7.279C309.92,393.191,313.175,389.935,317.198,389.935z"/>
</g>
<g>
</g>
<g>
</g>
<g>
</g>
<g>
</g>
<g>
</g>
<g>
</g>
<g>
</g>
<g>
</g>
<g>
</g>
<g>
</g>
<g>
</g>
<g>
</g>
<g>
</g>
<g>
</g>
<g>
</g>
</svg>
