<?xml version="1.0" encoding="iso-8859-1"?>
<!-- Generator: Adobe Illustrator 19.0.0, SVG Export Plug-In . SVG Version: 6.00 Build 0)  -->
<svg version="1.1" id="Layer_1" xmlns="http://www.w3.org/2000/svg" xmlns:xlink="http://www.w3.org/1999/xlink" x="0px" y="0px"
	 viewBox="0 0 512 512" style="enable-background:new 0 0 512 512;" xml:space="preserve">
<circle style="fill:#21D0C3;" cx="256" cy="256" r="256"/>
<ellipse style="fill:#15BDB2;" cx="256" cy="416.656" rx="182.284" ry="14.369"/>
<path style="fill:#666666;" d="M65.982,67.223h380.037c12.486,0,22.7,10.217,22.7,22.702V324.03H43.279V89.924
	c0-12.486,10.214-22.702,22.7-22.702H65.982z"/>
<path style="fill:#DCE3DB;" d="M58.695,308.615h394.607V89.921c0-3.979-3.308-7.287-7.287-7.287H65.979
	c-3.976,0-7.287,3.308-7.287,7.287v218.693h0.003V308.615z"/>
<path style="fill:#FFFFFF;" d="M468.718,324.03v24.827c0,12.489-11.261,22.702-25.026,22.702H68.303
	c-13.765,0-25.026-10.214-25.026-22.702V324.03h425.438H468.718z"/>
<circle style="fill:#B6B6B8;" cx="256" cy="346.803" r="7.814"/>
<path style="fill:#C2C2C4;" d="M305.066,407.272l36.096,11.564H170.836l29.123-11.564v-35.712h105.104v35.712H305.066z"/>
<path style="fill:#ECF0F1;" d="M199.959,407.272h105.104l36.096,11.564v4.981h-85.161h-85.164v-4.981l29.123-11.564H199.959z"/>
<path style="fill:#919191;" d="M199.959,371.559h105.104v36.321L199.959,371.559z"/>
<path style="fill:#FFFFFF;" d="M149.561,108.343h212.878h31.688c3.84,0,6.982,3.145,6.982,6.982v41.546v151.744H110.892v-0.003
	V156.872v-41.549c0-3.84,3.142-6.982,6.982-6.982h31.688L149.561,108.343z"/>
<path style="fill:#828282;" d="M117.873,108.343h276.254c3.84,0,6.982,3.142,6.982,6.982v13.963H110.89v-13.963
	C110.89,111.485,114.032,108.343,117.873,108.343z"/>
<path style="fill:#FFFFFF;" d="M240.094,115.575h140.192c1.033,0,1.875,0.842,1.875,1.875v3.481c0,1.033-0.842,1.875-1.875,1.875
	H240.094c-1.033,0-1.875-0.842-1.875-1.875v-3.481C238.219,116.417,239.061,115.575,240.094,115.575z"/>
<path style="fill:#21D0C3;" d="M124.818,114.332c2.219,0,4.018,1.796,4.018,4.018c0,2.222-1.802,4.018-4.018,4.018
	c-2.222,0-4.024-1.799-4.024-4.018C120.795,116.128,122.597,114.332,124.818,114.332z"/>
<path style="fill:#FAD24D;" d="M140.685,114.332c2.222,0,4.018,1.796,4.018,4.018c0,2.222-1.796,4.018-4.018,4.018
	c-2.219,0-4.018-1.799-4.018-4.018C136.666,116.128,138.466,114.332,140.685,114.332z"/>
<path style="fill:#FF5B62;" d="M156.554,114.332c2.219,0,4.018,1.796,4.018,4.018c0,2.222-1.799,4.018-4.018,4.018
	c-2.225,0-4.024-1.799-4.024-4.018C152.53,116.128,154.33,114.332,156.554,114.332z"/>
<path style="fill:#FAD24D;" d="M253.815,165.412c36.452,0,66,29.55,66,66h-37.281c0.058-0.759,0.092-1.524,0.092-2.298
	c0-15.909-12.898-28.809-28.809-28.809c-15.909,0-28.809,12.898-28.809,28.809c0,0.773,0.032,1.54,0.092,2.298h-37.281
	C187.819,194.963,217.367,165.412,253.815,165.412L253.815,165.412z"/>
<path style="fill:#EDB937;" d="M284.93,231.412h-2.395c0.058-0.759,0.092-1.524,0.092-2.298c0-15.909-12.898-28.809-28.809-28.809
	c-15.909,0-28.809,12.898-28.809,28.809c0,0.773,0.032,1.54,0.092,2.298h-2.397c-0.058-0.768-0.087-1.542-0.087-2.324
	c0-17.23,13.97-31.198,31.198-31.198c17.23,0,31.198,13.97,31.198,31.198c0,0.781-0.029,1.558-0.087,2.324H284.93z"/>
<path style="fill:#FFFFFF;" d="M252.947,168.84h1.737v8.519h-1.737V168.84z M260.782,169.215l1.724,0.213l-0.546,4.229l-1.724-0.213
	l0.548-4.226L260.782,169.215z M268.507,170.548l1.682,0.422l-2.167,8.252l-1.684-0.422l2.167-8.252H268.507z M276,172.816
	l1.613,0.624l-1.603,3.96l-1.616-0.624L276,172.816z M283.143,175.985l1.521,0.818l-4.2,7.465l-1.521-0.818L283.143,175.985z
	 M289.824,180.003L291.23,181l-2.563,3.446l-1.406-0.999l2.563-3.446V180.003z M295.935,184.809l1.267,1.162l-5.964,6.209
	l-1.267-1.162L295.935,184.809z M301.383,190.325l1.107,1.306l-3.357,2.715l-1.107-1.306L301.383,190.325z M306.081,196.463
	l0.931,1.432l-7.358,4.564l-0.931-1.432L306.081,196.463z M309.956,203.13l0.74,1.537l-3.942,1.812l-0.74-1.534L309.956,203.13z
	 M312.943,210.22l0.535,1.613l-8.289,2.634l-0.535-1.616L312.943,210.22z M314.999,217.62l0.325,1.666l-4.281,0.797l-0.325-1.666
	L314.999,217.62z M316.091,225.214l0.108,1.695l-8.698,0.535l-0.11-1.695l8.698-0.535H316.091z M191.429,226.908l0.108-1.695
	l8.698,0.535l-0.11,1.695l-8.698-0.535H191.429z M192.303,219.289l0.325-1.666l4.281,0.797l-0.325,1.666L192.303,219.289z
	 M194.147,211.834l0.535-1.613l8.289,2.631l-0.538,1.616l-8.289-2.634L194.147,211.834L194.147,211.834z M196.932,204.668
	l0.74-1.537l3.942,1.815l-0.74,1.534L196.932,204.668z M200.615,197.897l0.931-1.432l7.361,4.564l-0.931,1.432l-7.358-4.564H200.615
	z M205.137,191.632l1.107-1.306l3.357,2.715l-1.107,1.306L205.137,191.632z M210.425,185.971l1.267-1.162l5.964,6.209l-1.267,1.162
	L210.425,185.971z M216.4,181l1.406-0.997l2.563,3.446l-1.406,0.999l-2.56-3.446L216.4,181z M222.964,176.801l1.521-0.818l4.2,7.465
	l-1.521,0.818L222.964,176.801z M230.014,173.441l1.616-0.624l1.605,3.96l-1.616,0.624L230.014,173.441z M237.439,170.97
	l1.682-0.422l2.167,8.252l-1.682,0.422L237.439,170.97z M245.122,169.428l1.724-0.213l0.546,4.226l-1.724,0.213l-0.546-4.229
	V169.428z"/>
<path style="fill:#FED298;" d="M243.032,165.766c7.219,8.474,14.442,8.097,21.672,0.016l-6.86-16.546l-7.93-0.005L243.032,165.766z"
	/>
<path style="fill:#F0BA7D;" d="M253.838,171.985c3.622-0.034,7.242-2.151,10.865-6.201l-6.86-16.546l-3.989-0.003L253.838,171.985z"
	/>
<g>
	<path style="fill:#ED4C54;" d="M248.955,283.963L249,170.92c0-2.83-2.188-5.154-4.863-5.154l0,0c-0.38,0-0.748,0.047-1.104,0.134
		l-0.047,118.056l5.97,0.005L248.955,283.963L248.955,283.963z"/>
	<path style="fill:#ED4C54;" d="M264.703,165.918c-0.354-0.087-0.724-0.137-1.102-0.137l0,0c-2.676,0-4.868,2.313-4.868,5.146
		l-0.045,113.041l5.97,0.005l0.047-118.056L264.703,165.918L264.703,165.918z"/>
</g>
<path style="fill:#FF5B62;" d="M247.601,283.963l0.058-113.043c0-2.832,2.802-5.146,6.217-5.146l0,0
	c3.417,0,6.209,2.321,6.209,5.154l-0.058,113.043L247.601,283.963z"/>
<path style="fill:#828282;" d="M249.915,149.231l7.927,0.005l-4.097-13.272L249.915,149.231z"/>
<path style="fill:#666666;" d="M253.854,149.234l3.987,0.003l-3.979-12.887l-0.008,12.882V149.234z"/>
<rect x="242.876" y="283.965" style="fill:#DCE3DB;" width="21.876" height="3.486"/>
<path style="fill:#21D0C3;" d="M242.877,287.463l21.876,0.018l-0.003,5.603c0,3.079-2.523,5.595-5.603,5.592l-10.678-0.011
	c-3.079-0.003-5.597-2.523-5.595-5.603l0.003-5.603L242.877,287.463L242.877,287.463z"/>
<path style="fill:#FAD24D;" d="M171.587,231.412H336.05v33.54H171.587V231.412z"/>
<path style="fill:#EDB937;" d="M171.587,262.539H336.05v2.413H171.587V262.539z"/>
<path style="fill:#FFFFFF;" d="M174.268,253.031h1.711v9.503h-1.711V253.031z M331.658,253.031h1.708v9.503h-1.708V253.031z
	 M327.028,258.12h1.708v4.414h-1.708V258.12z M322.398,253.031h1.708v9.503h-1.708V253.031z M317.769,258.12h1.708v4.414h-1.708
	V258.12z M313.139,253.031h1.711v9.503h-1.711V253.031z M308.509,258.12h1.711v4.414h-1.711V258.12z M303.88,253.031h1.711v9.503
	h-1.711V253.031z M299.251,258.12h1.708v4.414h-1.708V258.12z M294.622,253.031h1.708v9.503h-1.708V253.031z M289.992,258.12h1.708
	v4.414h-1.708V258.12z M285.362,253.031h1.708v9.503h-1.708V253.031z M280.733,258.12h1.708v4.414h-1.708V258.12z M276.103,253.031
	h1.708v9.503h-1.708V253.031z M271.473,258.12h1.711v4.414h-1.711V258.12z M266.844,253.031h1.711v9.503h-1.711V253.031z
	 M262.214,258.12h1.711v4.414h-1.711V258.12z M257.584,253.031h1.708v9.503h-1.708V253.031z M252.955,258.12h1.708v4.414h-1.708
	V258.12z M248.325,253.031h1.708v9.503h-1.708V253.031z M243.695,258.12h1.708v4.414h-1.708V258.12z M239.066,253.031h1.708v9.503
	h-1.708V253.031z M234.436,258.12h1.708v4.414h-1.708V258.12z M229.807,253.031h1.708v9.503h-1.708V253.031z M225.177,258.12h1.711
	v4.414h-1.711V258.12z M220.547,253.031h1.711v9.503h-1.711V253.031z M215.918,258.12h1.711v4.414h-1.711V258.12z M211.288,253.031
	h1.708v9.503h-1.708V253.031z M206.658,258.12h1.708v4.414h-1.708V258.12z M202.029,253.031h1.708v9.503h-1.708V253.031z
	 M197.399,258.12h1.708v4.414h-1.708V258.12z M192.77,253.031h1.708v9.503h-1.708V253.031z M188.141,258.12h1.708v4.414h-1.708
	V258.12z M183.511,253.031h1.711v9.503h-1.711V253.031z M178.881,258.12h1.711v4.414h-1.711V258.12z"/>
<g>
</g>
<g>
</g>
<g>
</g>
<g>
</g>
<g>
</g>
<g>
</g>
<g>
</g>
<g>
</g>
<g>
</g>
<g>
</g>
<g>
</g>
<g>
</g>
<g>
</g>
<g>
</g>
<g>
</g>
</svg>
